<svg xmlns="http://www.w3.org/2000/svg" viewBox="0 0 720 320" role="img" aria-labelledby="t d"><title id="t">Ethane Newman conformations</title><desc id="d">Staggered and eclipsed Newman projections for ethane.</desc><rect width="720" height="320" rx="24" fill="#fffaf5"/><text x="360" y="38" text-anchor="middle" font-family="Arial" font-size="24" font-weight="700" fill="#422b1c">Ethane conformations</text><g stroke="#47362a" stroke-width="5" fill="none" font-family="Arial" text-anchor="middle"><g transform="translate(205 155)"><circle r="55"/><circle r="8" fill="#47362a"/><path d="M0 0V-80M0 0L-70 40M0 0L70 40M0-55L-48-84M48-28L72-70M-48-28L-72-70"/><text x="0" y="125" stroke="none" fill="#422b1c" font-size="22">Staggered · lower energy</text></g><g transform="translate(515 155)"><circle r="55"/><circle r="8" fill="#47362a"/><path d="M0 0V-80M0 0L-70 40M0 0L70 40M0-55V-90M48 28L78 45M-48 28L-78 45"/><text x="0" y="125" stroke="none" fill="#422b1c" font-size="22">Eclipsed · higher energy</text></g></g></svg>
