<svg xmlns="http://www.w3.org/2000/svg" viewBox="0 0 1200 700" role="img" aria-labelledby="title desc">
<title id="title">Diborane structure</title><desc id="desc">Four terminal bonds and two three-centre two-electron bridge bonds</desc>
<defs><linearGradient id="bg" x1="0" y1="0" x2="1" y2="1"><stop stop-color="#fffaf0"/><stop offset="1" stop-color="#f3e8ff"/></linearGradient><linearGradient id="ink" x1="0" y1="0" x2="1" y2="0"><stop stop-color="#7c2d12"/><stop offset="1" stop-color="#7e22ce"/></linearGradient><filter id="shadow"><feDropShadow dx="0" dy="8" stdDeviation="10" flood-opacity=".12"/></filter><marker id="arrow" viewBox="0 0 10 10" refX="9" refY="5" markerWidth="8" markerHeight="8" orient="auto-start-reverse"><path d="M0 0l10 5-10 5z" fill="#7e22ce"/></marker></defs>
<rect width="1200" height="700" rx="36" fill="url(#bg)"/><rect x="36" y="34" width="1128" height="632" rx="30" fill="#fff" stroke="#ead7f7" stroke-width="3" filter="url(#shadow)"/>
<text x="75" y="95" font-family="Arial,sans-serif" font-size="36" font-weight="800" fill="url(#ink)">Diborane structure</text><text x="75" y="130" font-family="Arial,sans-serif" font-size="19" fill="#64748b">Four terminal bonds and two three-centre two-electron bridge bonds</text>
<style>text{font-family:Arial,sans-serif}.h{font-size:24px;font-weight:800;fill:#3b1763}.t{font-size:20px;fill:#334155}.s{font-size:17px;fill:#64748b}.bond{stroke:#3b1763;stroke-width:6;stroke-linecap:round}.thin{stroke:#7e22ce;stroke-width:3;fill:none}.box{fill:#fffaf3;stroke:#d8b4fe;stroke-width:3}.atom{fill:#f3e8ff;stroke:#7e22ce;stroke-width:4}.accent{fill:#ea580c}.purple{fill:#7e22ce}</style><circle cx="430" cy="350" r="38" class="atom"/><circle cx="770" cy="350" r="38" class="atom"/><text x="430" y="360" text-anchor="middle" class="h">B</text><text x="770" y="360" text-anchor="middle" class="h">B</text><circle cx="600" cy="220" r="30" class="accent"/><circle cx="600" cy="480" r="30" class="accent"/><text x="600" y="230" text-anchor="middle" class="h">H</text><text x="600" y="490" text-anchor="middle" class="h">H</text><path d="M460 330Q600 170 740 330M460 370Q600 530 740 370" class="thin"/><g class="t"><text x="255" y="255">H</text><text x="255" y="455">H</text><text x="930" y="255">H</text><text x="930" y="455">H</text></g><path d="M285 260L400 330M285 440L400 370M800 330L915 260M800 370L915 440" class="bond"/><text x="600" y="565" text-anchor="middle" class="t">bridges: B–H–B “banana” bonds • terminals: ordinary B–H bonds</text>
<text x="600" y="640" text-anchor="middle" class="s">Scrutiny Academy • redraw neatly and label in the board examination</text></svg>