<svg xmlns="http://www.w3.org/2000/svg" viewBox="0 0 1200 700" role="img" aria-labelledby="title desc">
<title id="title">Organic reaction map</title><desc id="desc">Identify reagent, condition, intermediate and major product</desc>
<defs><linearGradient id="bg" x1="0" y1="0" x2="1" y2="1"><stop stop-color="#fffaf0"/><stop offset="1" stop-color="#f3e8ff"/></linearGradient><linearGradient id="ink" x1="0" y1="0" x2="1" y2="0"><stop stop-color="#7c2d12"/><stop offset="1" stop-color="#7e22ce"/></linearGradient><filter id="shadow"><feDropShadow dx="0" dy="8" stdDeviation="10" flood-opacity=".12"/></filter><marker id="arrow" viewBox="0 0 10 10" refX="9" refY="5" markerWidth="8" markerHeight="8" orient="auto-start-reverse"><path d="M0 0l10 5-10 5z" fill="#7e22ce"/></marker></defs>
<rect width="1200" height="700" rx="36" fill="url(#bg)"/><rect x="36" y="34" width="1128" height="632" rx="30" fill="#fff" stroke="#ead7f7" stroke-width="3" filter="url(#shadow)"/>
<text x="75" y="95" font-family="Arial,sans-serif" font-size="36" font-weight="800" fill="url(#ink)">Organic reaction map</text><text x="75" y="130" font-family="Arial,sans-serif" font-size="19" fill="#64748b">Identify reagent, condition, intermediate and major product</text>
<style>text{font-family:Arial,sans-serif}.h{font-size:24px;font-weight:800;fill:#3b1763}.t{font-size:20px;fill:#334155}.s{font-size:17px;fill:#64748b}.bond{stroke:#3b1763;stroke-width:6;stroke-linecap:round}.thin{stroke:#7e22ce;stroke-width:3;fill:none}.box{fill:#fffaf3;stroke:#d8b4fe;stroke-width:3}.atom{fill:#f3e8ff;stroke:#7e22ce;stroke-width:4}.accent{fill:#ea580c}.purple{fill:#7e22ce}</style><circle cx="600" cy="350" r="92" class="atom"/><text x="600" y="342" text-anchor="middle" class="h">Organic</text><text x="600" y="375" text-anchor="middle" class="h">substrate</text><rect x="135" y="172" width="230" height="76" rx="18" class="box"/><text x="250" y="218" text-anchor="middle" class="t">Electrophile E⁺</text><path d="M365 210L510 315" class="thin" marker-end="url(#arrow)"/><rect x="835" y="172" width="230" height="76" rx="18" class="box"/><text x="950" y="218" text-anchor="middle" class="t">Nucleophile Nu⁻</text><path d="M835 210L690 315" class="thin" marker-end="url(#arrow)"/><rect x="135" y="462" width="230" height="76" rx="18" class="box"/><text x="250" y="508" text-anchor="middle" class="t">Radical X·</text><path d="M365 500L510 385" class="thin" marker-end="url(#arrow)"/><rect x="835" y="462" width="230" height="76" rx="18" class="box"/><text x="950" y="508" text-anchor="middle" class="t">Heat / catalyst</text><path d="M835 500L690 385" class="thin" marker-end="url(#arrow)"/><text x="600" y="560" text-anchor="middle" class="t">curved arrows show electron-pair movement • single-headed arrows show radical movement</text>
<text x="600" y="640" text-anchor="middle" class="s">Scrutiny Academy • redraw neatly and label in the board examination</text></svg>